<svg width="256" height="256" viewBox="0 0 256 256" fill="none" xmlns="http://www.w3.org/2000/svg">
<path d="M128 24C74.2 24 32 48.6 32 80V176C32 207.4 74.2 232 128 232C181.8 232 224 207.4 224 176V80C224 48.6 181.8 24 128 24ZM208 128C208 137.6 200.1 147.4 186.4 154.9C170.9 163.4 150.2 168 128 168C105.8 168 85.1 163.4 69.6 154.9C55.9 147.4 48 137.6 48 128V111.4C65.1 126.3 94.2 136 128 136C161.8 136 190.9 126.3 208 111.4V128ZM69.6 53.1C85.1 44.6 105.8 40 128 40C150.2 40 170.9 44.6 186.4 53.1C200.1 60.6 208 70.4 208 80C208 89.6 200.1 99.4 186.4 106.9C170.9 115.4 150.2 120 128 120C105.8 120 85.1 115.4 69.6 106.9C55.9 99.4 48 89.6 48 80C48 70.4 55.9 60.6 69.6 53.1ZM186.4 202.9C170.9 211.4 150.2 216 128 216C105.8 216 85.1 211.4 69.6 202.9C55.9 195.4 48 185.6 48 176V159.4C65.1 174.3 94.2 184 128 184C161.8 184 190.9 174.3 208 159.4V176C208 185.6 200.1 195.4 186.4 202.9Z" fill="black"/>
</svg>
