<svg width="114" height="114" viewBox="0 0 114 114" fill="none" xmlns="http://www.w3.org/2000/svg">
<path fill-rule="evenodd" clip-rule="evenodd" d="M88.9998 0C101.081 0 111.161 8.5695 113.492 19.9616C113.825 21.5891 114 23.2741 114 25V89C114 102.807 102.807 114 88.9998 114H25C22.2665 114 19.6356 113.561 17.1736 112.751C7.1998 109.466 0 100.074 0 89V25C0 11.1929 11.1929 0 25 0H88.9998ZM78.8598 8H88.9998C97.2848 8 104.186 13.927 105.694 21.7722C100.883 22.3173 95.3828 21.8122 89.5748 19.3233C84.4288 17.1175 81.0148 13.031 78.8598 8ZM55.1228 8H70.3178C72.8428 15.5995 77.6788 22.9286 86.4238 26.6764C93.4388 29.6828 100.101 30.3802 106 29.7944V37.9687C97.9908 40.5041 90.0098 41.5302 83.6238 39.6611C80.4518 38.7327 76.8118 36.2678 72.8948 32.3902C69.0318 28.5657 65.1768 23.6468 61.5368 18.27C59.2748 14.9287 57.1208 11.4481 55.1228 8ZM45.9353 8H35.3492C35.8317 17.0527 33.6987 28.1102 25.7641 39.312C20.5073 46.7334 14.2908 50.815 8 52.638V68.587C11.7906 66.285 16.2531 63.141 21.4778 58.896C33.8227 48.8655 43.5459 44.8747 50.9188 44.1447C58.2488 43.4189 63.4598 45.9616 65.7548 49.1753C68.1648 52.549 69.5268 57.07 70.0398 61.838C70.5588 66.664 70.2428 72.047 69.0248 77.389C66.6058 88.009 60.4628 99.063 49.3966 105.022C48.794 105.347 48.1859 105.673 47.5731 106H60.0078C64.8708 99.826 68.7628 93.692 70.1588 88.885C71.7338 83.458 72.3808 77.705 72.9848 72.327L72.9858 72.326V72.324C73.2028 70.393 73.4148 68.509 73.6618 66.706C74.0908 63.582 74.6828 60.272 75.9538 57.885C76.6268 56.622 77.6958 55.216 79.4158 54.404C81.2268 53.549 83.1118 53.654 84.7648 54.205C89.3988 55.75 95.5588 56.07 106 53.454V46.3185C97.9478 48.5873 89.1688 49.6196 81.3758 47.339C76.3478 45.8673 71.5748 42.3406 67.2668 38.0754C62.9048 33.7572 58.7228 28.3824 54.9128 22.755C51.6538 17.9414 48.6199 12.8719 45.9353 8ZM106 61.682C96.0528 63.959 88.8998 63.864 82.8498 61.992C82.4028 63.039 81.9858 64.895 81.5878 67.794C81.3898 69.234 81.2068 70.871 81.0078 72.641C80.3898 78.157 79.6268 84.965 77.8408 91.115C76.4728 95.829 73.5128 101.008 69.9948 106H78.0428C79.5278 102.308 80.8948 98.792 81.9688 95.837C83.1228 92.661 83.8448 90.377 84.0778 89.215C84.5188 87.008 85.3598 84.633 87.3328 82.95C89.3848 81.198 91.9048 80.822 94.2658 80.942C96.5908 81.061 99.3168 81.687 102.392 82.569C103.51 82.889 104.712 83.255 106 83.662V61.682ZM105.74 91.979C103.652 91.301 101.814 90.726 100.186 90.259C97.2148 89.406 95.2218 89.001 93.8598 88.932C92.9798 88.887 92.6238 88.996 92.5218 89.041C92.4638 89.109 92.1798 89.496 91.9228 90.784C91.5548 92.622 90.6238 95.442 89.4878 98.569C88.6728 100.813 87.7038 103.343 86.6548 106H88.9998C97.3728 106 104.332 99.947 105.74 91.979ZM30.3117 106C35.5507 103.298 40.8386 100.544 45.6038 97.978C54.0378 93.437 59.1448 84.742 61.2248 75.612C62.2578 71.079 62.5038 66.586 62.0858 62.694C61.6608 58.743 60.5858 55.702 59.2448 53.825C59.0408 53.539 57.0018 51.582 51.7068 52.106C46.4545 52.626 38.1777 55.635 26.5226 65.105C19.2267 71.033 13.1211 75.094 8 77.779V86.801C9.2624 85.646 10.6879 84.681 12.0053 83.858C13.3474 83.019 14.8098 82.194 16.247 81.388L16.6032 81.188C17.9457 80.436 19.2782 79.689 20.6014 78.897C23.4959 77.163 26.0986 75.352 28.0999 73.245C31.5649 69.597 36.5662 65.244 41.2681 62.272C43.5877 60.805 46.0928 59.508 48.4564 58.913C50.6748 58.354 54.1138 58.127 56.5108 60.867C58.7918 63.474 59.7368 67.384 58.0758 72.459C56.4978 77.28 52.5348 83.366 44.8745 91.282C36.9232 99.498 28.9716 103.614 22.2678 104.926C21.5117 105.074 20.7679 105.186 20.0391 105.265C21.6085 105.743 23.2742 106 25 106H30.3117ZM8 44.1738C11.8759 42.5663 15.7373 39.6271 19.2359 34.6878C26.1441 24.9351 27.8135 15.4781 27.3381 8H25C15.6111 8 8 15.6112 8 25V44.1738ZM92.5138 89.045C92.4948 89.054 92.4868 89.06 92.4878 89.06C92.4888 89.061 92.4928 89.059 92.4998 89.054L92.5048 89.051L92.5138 89.045ZM45.5425 69.034C41.514 71.58 37.0147 75.476 33.9002 78.755C31.1521 81.648 27.8175 83.9 24.712 85.76C23.2849 86.614 21.8538 87.416 20.5274 88.16L20.16 88.366C18.7064 89.181 17.4031 89.918 16.2451 90.642C13.7481 92.202 12.7043 93.252 12.3771 93.923C12.2833 94.116 12.2721 94.226 12.3011 94.394C12.3422 94.634 12.5144 95.187 13.1995 96.1L13.2661 96.189L13.3277 96.281C13.3315 96.286 13.4216 96.411 13.7079 96.586C14.0036 96.767 14.4613 96.971 15.1114 97.131C16.4179 97.453 18.3197 97.546 20.7318 97.074C25.5282 96.136 32.0769 93.002 39.1257 85.718C46.4657 78.134 49.451 73.09 50.4728 69.971C51.0808 68.113 50.9558 67.107 50.7618 66.593C50.6638 66.611 50.5478 66.636 50.4108 66.671C49.2556 66.962 47.5881 67.741 45.5425 69.034ZM51.1918 66.555C51.1898 66.558 51.1658 66.558 51.1258 66.55C51.1728 66.549 51.1938 66.553 51.1918 66.555Z" fill="#56704E"/>
</svg>
