<svg width="200" height="200" viewBox="0 0 200 200" fill="none" xmlns="http://www.w3.org/2000/svg">
<path d="M198.81 193.21L153.01 147.31C168.505 130.326 176.738 107.953 175.948 84.9767C175.158 62.0003 165.408 40.2453 148.784 24.3656C132.159 8.48585 109.981 -0.257548 86.9921 0.00578003C64.0036 0.269109 42.031 9.51825 25.7746 25.7746C9.51825 42.031 0.269109 64.0036 0.00578003 86.9921C-0.257548 109.981 8.48585 132.159 24.3656 148.784C40.2453 165.408 62.0003 175.158 84.9767 175.948C107.953 176.738 130.326 168.505 147.31 153.01L193.21 198.81C193.574 199.185 194.009 199.483 194.49 199.687C194.971 199.89 195.488 199.995 196.01 199.995C196.532 199.995 197.049 199.89 197.53 199.687C198.011 199.483 198.447 199.185 198.81 198.81C199.185 198.447 199.483 198.011 199.687 197.53C199.89 197.049 199.995 196.532 199.995 196.01C199.995 195.488 199.89 194.971 199.687 194.49C199.483 194.009 199.185 193.574 198.81 193.21ZM8.0101 88.0101C8.0101 72.1876 12.702 56.7204 21.4925 43.5645C30.283 30.4086 42.7773 20.1548 57.3954 14.0997C72.0135 8.04473 88.0988 6.46046 103.617 9.54728C119.136 12.6341 133.39 20.2534 144.579 31.4416C155.767 42.6298 163.386 56.8844 166.473 72.4029C169.56 87.9214 167.975 104.007 161.92 118.625C155.865 133.243 145.612 145.737 132.456 154.528C119.3 163.318 103.833 168.01 88.0101 168.01C66.8009 167.984 46.468 159.547 31.4708 144.549C16.4736 129.552 8.03656 109.219 8.0101 88.0101Z" fill="black"/>
</svg>
